<?xml version="1.0" encoding="UTF-8" standalone="no"?>
<svg
   xmlns:dc="http://purl.org/dc/elements/1.1/"
   xmlns:cc="http://creativecommons.org/ns#"
   xmlns:rdf="http://www.w3.org/1999/02/22-rdf-syntax-ns#"
   xmlns:svg="http://www.w3.org/2000/svg"
   xmlns="http://www.w3.org/2000/svg"
   viewBox="0 0 377.94666 377.94666"
   height="377.94666"
   width="377.94666"
   xml:space="preserve"
   id="svg2"
   version="1.1"><metadata
     id="metadata8"><rdf:RDF><cc:Work
         rdf:about=""><dc:format>image/svg+xml</dc:format><dc:type
           rdf:resource="http://purl.org/dc/dcmitype/StillImage" /></cc:Work></rdf:RDF></metadata><defs
     id="defs6" /><g
     transform="matrix(1.3333333,0,0,-1.3333333,0,377.94667)"
     id="g10"><g
       transform="scale(0.1)"
       id="g12"><path
         id="path14"
         style="fill:#ffffff;fill-opacity:1;fill-rule:nonzero;stroke:none"
         d="m 1210.27,1430.89 v -375.94 l 403.94,789.85 h -610.33 v -413.91 h 178.07" /><path
         id="path16"
         style="fill:#ffffff;fill-opacity:1;fill-rule:nonzero;stroke:none"
         d="m 1675.64,1699.21 c 40.2,0 72.77,32.6 72.77,72.79 0,40.18 -32.57,72.78 -72.77,72.78 -9.14,0 -17.84,-1.76 -25.89,-4.82 l -44.32,-86.93 c 8.36,-30.98 36.57,-53.82 70.21,-53.82" /><path
         id="path18"
         style="fill:#ffffff;fill-opacity:1;fill-rule:nonzero;stroke:none"
         d="m 1783.46,1699.46 h 46.918 v 145.07 h -46.918 z" /><path
         id="path20"
         style="fill:#ffffff;fill-opacity:1;fill-rule:nonzero;stroke:none"
         d="m 1608.2,1529.53 h 46.9297 V 1674.6 H 1608.2 Z" /><path
         id="path22"
         style="fill:#ffffff;fill-opacity:1;fill-rule:nonzero;stroke:none"
         d="m 1568.94,1529.53 v 145.07 h -3.5 l -43.43,-85.2 v -59.87" /><path
         id="path24"
         style="fill:#ffffff;fill-opacity:1;fill-rule:nonzero;stroke:none"
         d="m 1757.93,1674.86 c -40.21,0 -72.78,-32.59 -72.78,-72.79 0,-40.19 32.57,-72.78 72.78,-72.78 40.21,0 72.79,32.59 72.79,72.78 0,40.2 -32.58,72.79 -72.79,72.79" /><path
         id="path26"
         style="fill:#ffffff;fill-opacity:1;fill-rule:nonzero;stroke:none"
         d="m 1481.81,1356.91 v 145.07 h -4.37 l -42.57,-83.46 v -61.61" /><path
         id="path28"
         style="fill:#ffffff;fill-opacity:1;fill-rule:nonzero;stroke:none"
         d="m 1585.75,1502.24 c -40.2,0 -72.78,-32.6 -72.78,-72.79 0,-40.18 32.58,-72.78 72.78,-72.78 14.31,0 27.61,4.19 38.86,11.31 v 63.42 h 33.84 c -1.05,39.28 -33.14,70.84 -72.7,70.84" /><path
         id="path30"
         style="fill:#ffffff;fill-opacity:1;fill-rule:nonzero;stroke:none"
         d="m 1830.72,1431.41 c -1.04,39.28 -33.14,70.82 -72.7,70.82 -39.54,0 -71.64,-31.54 -72.68,-70.82 h 145.38" /><path
         id="path32"
         style="fill:#ffffff;fill-opacity:1;fill-rule:nonzero;stroke:none"
         d="m 1443,1254.66 c 0,34.28 -23.73,62.95 -55.64,70.67 l -64.28,-126.07 c 12.7,-10.81 29.14,-17.38 47.14,-17.38 40.21,0 72.78,32.59 72.78,72.78" /><path
         id="path34"
         style="fill:#ffffff;fill-opacity:1;fill-rule:nonzero;stroke:none"
         d="m 1280.51,1007.63 v 108.15 l -46.93,-92.04 v -16.11 z" /><path
         id="path36"
         style="fill:#ffffff;fill-opacity:1;fill-rule:nonzero;stroke:none"
         d="m 1386.92,1152.94 c -40.21,0 -72.78,-32.6 -72.78,-72.78 0,-40.19 32.57,-72.79 72.78,-72.79 40.21,0 72.78,32.6 72.78,72.79 0,40.18 -32.57,72.78 -72.78,72.78" /><path
         id="path38"
         style="fill:#ffffff;fill-opacity:1;fill-rule:nonzero;stroke:none"
         d="m 1492.94,1007.63 h 46.9297 V 1152.7 H 1492.94 Z" /><path
         id="path40"
         style="fill:#ffffff;fill-opacity:1;fill-rule:nonzero;stroke:none"
         d="M 1208.87,976.277 V 835.789 h 46.94 v 145.07 h -44.09" /><path
         id="path42"
         style="fill:#ffffff;fill-opacity:1;fill-rule:nonzero;stroke:none"
         d="m 1375.82,981.113 c -40.21,0 -72.77,-32.601 -72.77,-72.781 0,-40.199 32.56,-72.801 72.77,-72.801 40.22,0 72.79,32.602 72.79,72.801 0,40.18 -32.57,72.781 -72.79,72.781" /><path
         id="path44"
         style="fill:#ffffff;fill-opacity:1;fill-rule:nonzero;stroke:none"
         d="m 1577.68,1007.63 h 46.9297 V 1152.7 H 1577.68 Z" /><path
         id="path46"
         style="fill:#ffffff;fill-opacity:1;fill-rule:nonzero;stroke:none"
         d="m 1552.05,1327.45 c -40.21,0 -72.77,-32.6 -72.77,-72.78 0,-40.19 32.56,-72.79 72.77,-72.79 40.21,0 72.78,32.6 72.78,72.79 0,40.18 -32.57,72.78 -72.78,72.78" /><path
         id="path48"
         style="fill:#ffffff;fill-opacity:1;fill-rule:nonzero;stroke:none"
         d="m 1552.05,981.113 c -40.21,0 -72.77,-32.601 -72.77,-72.781 0,-40.187 32.56,-72.789 72.77,-72.789 40.21,0 72.78,32.602 72.78,72.789 0,40.18 -32.57,72.781 -72.78,72.781" /></g></g></svg>